# File created by Blade
# Date/Time:  Thu Jan 22 15:49:58 2015
# Frame Rate: 120.000 fps
#------------------------------------------------------
:FULLY-SPECIFIED
:DEGREES
1234
root 3.294215 37.077671 4.284525 -7.897796 -1.625461 2.511218
RightUpLeg 14.810089 -6.204266 -6.092735
RightLeg -4.302236 -0.000000 0.000000
RightFoot -12.281811 -13.353599 16.896849
RightToeBase 14.672257 -0.000000 -0.000000
LeftUpLeg 12.882934 4.762318 1.948476
LeftLeg -1.579870 -0.000000 0.000000
LeftFoot -7.330482 7.554415 -15.985931
LeftToeBase 8.736384 -0.000000 -0.000000
Spine 9.459886 -4.748043 -2.759248
RightShoulder 5.010835 -19.175325 -15.014304
RightArm 29.667798 2.719203 49.063949
RightForeArm 17.248997 -0.000000 42.104640
RightHand 5.155183 0.000000 -3.065899
RightHandThumb1 -24.326973 -0.000000 -32.862282
LeftShoulder -13.628213 29.543983 13.835106
LeftArm 55.906187 -22.812219 -64.012415
LeftForeArm 18.945268 -0.000000 43.182945
LeftHand -21.663289 0.000000 1.645801
LeftHandThumb1 -26.253704 0.000000 33.147579
Head -3.857046 16.612757 -7.835010
1235
root 3.289315 37.077940 4.260258 -7.964789 -1.557553 2.519380
RightUpLeg 14.844280 -6.168439 -6.082747
RightLeg -4.285469 -0.000000 0.000000
RightFoot -12.343539 -13.450592 16.954309
RightToeBase 14.670488 -0.000000 -0.000000
LeftUpLeg 12.893199 4.758744 1.960575
LeftLeg -1.551886 -0.000000 0.000000
LeftFoot -7.295468 7.462300 -16.008270
LeftToeBase 8.812941 -0.000000 -0.000000
Spine 9.445519 -4.657282 -2.830863
RightShoulder 5.429644 -19.093553 -15.067808
RightArm 30.310630 2.184910 49.231362
RightForeArm 18.414010 0.000000 43.708126
RightHand 5.566383 -0.000000 -3.133660
RightHandThumb1 -24.326973 -0.000000 -32.862282
LeftShoulder -13.349189 29.403581 14.260823
LeftArm 56.902079 -21.977865 -63.752814
LeftForeArm 18.969292 0.000000 45.760622
LeftHand -21.414076 -0.000000 1.588736
LeftHandThumb1 -26.253704 0.000000 33.147579
Head -3.692314 16.708430 -7.821666
1236
root 3.285539 37.078782 4.233335 -7.967277 -1.492824 2.526269
RightUpLeg 14.804154 -6.163406 -6.060144
RightLeg -4.271036 -0.000000 0.000000
RightFoot -12.367338 -13.579001 16.936706
RightToeBase 14.671260 -0.000000 -0.000000
LeftUpLeg 12.828499 4.790100 1.969772
LeftLeg -1.522690 -0.000000 0.000000
LeftFoot -7.232929 7.379799 -16.009497
LeftToeBase 8.694285 -0.000000 -0.000000
Spine 9.382368 -4.530708 -2.874334
RightShoulder 5.775787 -18.929395 -15.123227
RightArm 30.904124 1.521594 49.342153
RightForeArm 19.612503 -0.000000 45.319160
RightHand 5.941200 0.000000 -3.075774
RightHandThumb1 -24.326973 -0.000000 -32.862282
LeftShoulder -13.058387 29.199526 14.664107
LeftArm 57.906210 -21.129701 -63.415024
LeftForeArm 18.971475 0.000000 48.330069
LeftHand -21.288076 -0.000000 1.507536
LeftHandThumb1 -26.253704 0.000000 33.147579
Head -3.596337 16.730881 -7.860459
1237
root 3.281876 37.081635 4.215578 -8.011354 -1.351259 2.486470
RightUpLeg 14.901001 -6.155822 -6.018217
RightLeg -4.373377 -0.000000 0.000000
RightFoot -12.272489 -13.677050 16.952206
RightToeBase 14.577982 -0.000000 -0.000000
LeftUpLeg 12.820990 4.708403 2.011305
LeftLeg -1.512490 -0.000000 0.000000
LeftFoot -7.202725 7.320472 -16.007797
LeftToeBase 8.746163 -0.000000 -0.000000
Spine 9.336297 -4.463468 -2.877943
RightShoulder 6.092522 -18.999721 -15.159647
RightArm 31.706915 0.924719 49.316550
RightForeArm 20.884722 -0.000000 46.874692
RightHand 6.400589 -0.000000 -3.178327
RightHandThumb1 -24.326973 -0.000000 -32.862282
LeftShoulder -12.689563 29.031354 15.140200
LeftArm 58.936569 -20.268354 -63.094641
LeftForeArm 18.860584 -0.000000 50.907174
LeftHand -21.199098 0.000000 1.216977
LeftHandThumb1 -26.253704 0.000000 33.147579
Head -3.444982 16.781011 -7.864106
1238
root 3.284429 37.081735 4.193649 -8.032885 -1.231036 2.521009
RightUpLeg 14.924595 -6.229405 -6.078651
RightLeg -4.385744 -0.000000 0.000000
RightFoot -12.299298 -13.622150 17.004090
RightToeBase 14.631250 -0.000000 -0.000000
LeftUpLeg 12.781955 4.629004 1.961033
LeftLeg -1.496315 -0.000000 0.000000
LeftFoot -7.161819 7.315690 -15.982681
LeftToeBase 8.761037 -0.000000 -0.000000
Spine 9.305036 -4.433535 -2.968262
RightShoulder 6.429520 -18.951944 -15.255782
RightArm 32.534367 0.246295 49.359382
RightForeArm 22.060586 -0.000000 48.417058
RightHand 6.832426 0.000000 -3.399353
RightHandThumb1 -24.326973 -0.000000 -32.862282
LeftShoulder -12.398249 28.768296 15.608535
LeftArm 59.952951 -19.409861 -62.740571
LeftForeArm 18.685712 -0.000000 53.403527
LeftHand -21.076288 -0.000000 1.021529
LeftHandThumb1 -26.253704 0.000000 33.147579
Head -3.400736 16.871603 -7.895233
